<svg width="74" height="31" viewBox="0 0 74 31" fill="none" xmlns="http://www.w3.org/2000/svg">
<g filter="url(#filter0_d_2615_1677)">
<path d="M18.1826 16.08C17.1266 17.352 12.016 17.5 10.096 17.5C6.304 17.5 4 15.052 4 11.5C4 7.972 6.328 5.524 10.096 5.524C11.92 5.524 17.1746 6.72 18.2306 7.992L12.832 9.484C12.064 8.644 11.224 8.308 10.096 8.308C8.488 8.308 7.096 9.604 7.096 11.5C7.096 13.564 8.392 14.716 10.096 14.716C11.104 14.716 12.256 14.332 12.88 13.54L18.1826 16.08Z" fill="white"/>
<path d="M32.8035 6.312L25.8195 22.872H22.3875L24.6195 17.712L19.7955 6.312H23.2035L25.6035 12.408L26.2995 14.592L26.9715 12.408L29.3715 6.312H32.8035Z" fill="white"/>
<path d="M40.6494 8.856C38.9214 8.856 37.6734 10.176 37.6734 11.976C37.6734 13.752 38.9214 15.072 40.6494 15.072C42.3294 15.072 43.4814 13.824 43.4814 11.976C43.4814 10.104 42.3294 8.856 40.6494 8.856ZM34.6734 17.592V0H37.7214V6.264L37.6734 7.08C38.1774 6.408 39.7134 6.024 40.7694 6.024C44.5374 6.024 46.6495 8.784 46.6495 11.976C46.6495 15.576 44.4894 17.904 40.7694 17.904C39.8574 17.904 38.3934 17.472 37.7934 16.752L37.8174 17.4V17.592H34.6734Z" fill="white"/>
<path d="M59.3377 16.152C58.4497 17.304 56.4098 18 54.6578 18C50.8418 18 48.7058 15.384 48.7058 12C48.7058 8.544 50.8178 6.024 54.5378 6.024C58.2338 6.024 60.3457 8.544 60.3457 12C60.3457 12.384 60.3457 12.624 60.3217 12.96H51.8258C51.9938 14.376 53.0498 15.264 54.6578 15.264C55.8098 15.264 56.8897 14.88 57.5617 14.136L59.3377 16.152ZM51.8738 10.896H57.1537C57.0097 9.624 55.9538 8.76 54.5378 8.76C53.1218 8.76 51.9938 9.624 51.8738 10.896Z" fill="white"/>
<path d="M68.7516 9.144C68.1276 8.928 67.5756 8.856 66.9276 8.856C66.4956 8.856 66.1356 8.88 65.7996 9.024V17.592H62.7036V6.816C63.6396 6.336 65.2476 6 66.8076 6C67.4796 6 68.6796 6.072 69.3996 6.336L68.7516 9.144Z" fill="white"/>
</g>
<defs>
<filter id="filter0_d_2615_1677" x="0" y="0" width="73.3997" height="30.8721" filterUnits="userSpaceOnUse" color-interpolation-filters="sRGB">
<feFlood flood-opacity="0" result="BackgroundImageFix"/>
<feColorMatrix in="SourceAlpha" type="matrix" values="0 0 0 0 0 0 0 0 0 0 0 0 0 0 0 0 0 0 127 0" result="hardAlpha"/>
<feOffset dy="4"/>
<feGaussianBlur stdDeviation="2"/>
<feComposite in2="hardAlpha" operator="out"/>
<feColorMatrix type="matrix" values="0 0 0 0 0 0 0 0 0 0 0 0 0 0 0 0 0 0 0.25 0"/>
<feBlend mode="normal" in2="BackgroundImageFix" result="effect1_dropShadow_2615_1677"/>
<feBlend mode="normal" in="SourceGraphic" in2="effect1_dropShadow_2615_1677" result="shape"/>
</filter>
</defs>
</svg>
